<svg width="25" height="25" viewBox="0 0 25 25" fill="none" xmlns="http://www.w3.org/2000/svg">
<g clip-path="url(#clip0)">
<path d="M24.8567 10.1283C24.7345 9.97912 24.552 9.89206 24.3606 9.89206H21.9275C21.3271 8.30836 20.5449 6.75666 19.6557 6.17093C16.5799 4.14745 8.42157 4.14745 5.34578 6.17093C4.456 6.7573 3.67698 8.31092 3.07334 9.89206H0.640233C0.446916 9.89206 0.265121 9.97912 0.144138 10.1283C0.0225142 10.2768 -0.0261352 10.4733 0.0135525 10.6621L0.373942 12.4084C0.435393 12.7061 0.697844 12.9186 1.00062 12.9186H1.7214C1.02559 13.7214 0.688242 14.7322 0.683761 15.7436C0.67928 16.9931 1.15361 18.1223 2.02098 18.9212C2.03058 18.9295 2.04018 18.9353 2.04914 18.9436V21.387C2.04914 21.9164 2.47931 22.3473 3.00933 22.3473H5.2536C5.78362 22.3473 6.21378 21.9164 6.21378 21.387V20.4051H18.7864V21.387C18.7864 21.9164 19.2166 22.3473 19.7466 22.3473H21.9909C22.5196 22.3473 22.9511 21.9164 22.9511 21.387V18.9916C23.8716 18.1486 24.3113 16.9886 24.3171 15.8306C24.3209 14.7846 23.9682 13.7367 23.2314 12.9174H24.0002C24.3043 12.9174 24.5667 12.7048 24.6269 12.4065L24.9879 10.6609C25.0251 10.4733 24.9783 10.2781 24.8567 10.1283ZM6.40006 7.77448C8.85173 6.16069 16.1485 6.16069 18.5989 7.77448C19.0751 8.08687 19.6877 9.34986 20.2491 10.8964H4.7511C5.31121 9.3505 5.92381 8.08815 6.40006 7.77448ZM3.52847 15.9843C3.52847 14.9408 4.37471 14.0959 5.41747 14.0959C6.46151 14.0959 7.30647 14.9408 7.30647 15.9843C7.30647 17.0277 6.46151 17.8733 5.41747 17.8733C4.37471 17.8733 3.52847 17.0277 3.52847 15.9843ZM19.6077 17.8733C18.565 17.8733 17.7187 17.0277 17.7187 15.9843C17.7187 14.9408 18.565 14.0959 19.6077 14.0959C20.6518 14.0959 21.4967 14.9408 21.4967 15.9843C21.4967 17.0277 20.6505 17.8733 19.6077 17.8733Z" fill="#929AA2"/>
</g>
<defs>
<clipPath id="clip0">
<rect width="25" height="25" fill="white"/>
</clipPath>
</defs>
</svg>
