<svg width="17" height="17" viewBox="0 0 17 17" fill="none" xmlns="http://www.w3.org/2000/svg">
<path d="M16 12.3745C16 12.7033 15.9075 13.0081 15.7593 13.2764L11.0232 7.97732L15.708 3.87856C15.8902 4.16777 16 4.50748 16 4.87459V12.3745ZM8.50002 8.93946L15.0187 3.23576C14.7512 3.08932 14.45 2.99951 14.125 2.99951H2.87499C2.54965 2.99951 2.24832 3.08932 1.9819 3.23576L8.50002 8.93946ZM10.3174 8.5944L8.80848 9.91549C8.72022 9.99238 8.61032 10.0308 8.50002 10.0308C8.38965 10.0308 8.27975 9.99238 8.19149 9.91549L6.68225 8.59434L1.88622 13.9611C2.1737 14.1415 2.5106 14.2495 2.87496 14.2495H14.125C14.4893 14.2495 14.8264 14.1415 15.1138 13.9611L10.3174 8.5944ZM1.29208 3.87853C1.10987 4.16774 1 4.50745 1 4.87459V12.3745C1 12.7033 1.09206 13.0082 1.24079 13.2764L5.97635 7.97642L1.29208 3.87853Z" fill="#2E363E"/>
</svg>
