<svg width="17" height="23" viewBox="0 0 17 23" fill="none" xmlns="http://www.w3.org/2000/svg">
<g clip-path="url(#clip0)">
<path d="M14.0786 7.23064C14.0181 7.00385 13.8952 6.7622 13.8043 6.55062C12.7165 3.9364 10.3397 2.99951 8.42053 2.99951C5.85141 2.99951 3.02182 4.72222 2.64404 8.27313V8.9986C2.64404 9.02888 2.65448 9.30085 2.6693 9.43689C2.88107 11.1292 4.2164 12.9277 5.21368 14.62C6.28661 16.4331 7.39994 18.2166 8.50294 19.9995C9.18308 18.836 9.86076 17.6573 10.5254 16.524C10.7065 16.1914 10.9168 15.859 11.0982 15.5415C11.219 15.3301 11.4499 15.1188 11.5554 14.9221C12.6283 12.9578 14.3552 10.9783 14.3552 9.02884V8.228C14.3553 8.01666 14.0933 7.27621 14.0786 7.23064ZM8.46757 10.8725C7.71238 10.8725 6.88576 10.4949 6.47775 9.45203C6.41696 9.28603 6.42186 8.95335 6.42186 8.92288V8.45443C6.42186 7.12499 7.55068 6.52042 8.5327 6.52042C9.74168 6.52042 10.6767 7.48767 10.6767 8.69664C10.6767 9.90557 9.67654 10.8725 8.46757 10.8725Z" fill="#2E363E"/>
</g>
<defs>
<clipPath id="clip0">
<rect width="17" height="17" fill="white" transform="matrix(-1 0 0 1 17 2.99951)"/>
</clipPath>
</defs>
</svg>
