<svg width="103" height="31" viewBox="0 0 103 31" fill="none" xmlns="http://www.w3.org/2000/svg">
<path d="M46.1787 17.8232H43.1729V23H41.4766V10.2031H45.7129C47.1543 10.2031 48.2617 10.5312 49.0352 11.1875C49.8145 11.8438 50.2041 12.7988 50.2041 14.0527C50.2041 14.8496 49.9873 15.5439 49.5537 16.1357C49.126 16.7275 48.5283 17.1699 47.7607 17.4629L50.7666 22.8945V23H48.9561L46.1787 17.8232ZM43.1729 16.4434H45.7656C46.6035 16.4434 47.2686 16.2266 47.7607 15.793C48.2588 15.3594 48.5078 14.7793 48.5078 14.0527C48.5078 13.2617 48.2705 12.6553 47.7959 12.2334C47.3271 11.8115 46.6475 11.5977 45.7568 11.5918H43.1729V16.4434ZM56.2686 23.1758C54.9795 23.1758 53.9307 22.7539 53.1221 21.9102C52.3135 21.0605 51.9092 19.9268 51.9092 18.5088V18.21C51.9092 17.2666 52.0879 16.4258 52.4453 15.6875C52.8086 14.9434 53.3125 14.3633 53.957 13.9473C54.6074 13.5254 55.3105 13.3145 56.0664 13.3145C57.3027 13.3145 58.2637 13.7217 58.9492 14.5361C59.6348 15.3506 59.9775 16.5166 59.9775 18.0342V18.7109H53.5352C53.5586 19.6484 53.8311 20.4072 54.3525 20.9873C54.8799 21.5615 55.5479 21.8486 56.3564 21.8486C56.9307 21.8486 57.417 21.7314 57.8154 21.4971C58.2139 21.2627 58.5625 20.9521 58.8613 20.5654L59.8545 21.3389C59.0576 22.5635 57.8623 23.1758 56.2686 23.1758ZM56.0664 14.6504C55.4102 14.6504 54.8594 14.8906 54.4141 15.3711C53.9688 15.8457 53.6934 16.5137 53.5879 17.375H58.3516V17.252C58.3047 16.4258 58.082 15.7871 57.6836 15.3359C57.2852 14.8789 56.7461 14.6504 56.0664 14.6504ZM63.3965 13.4902L63.4404 14.5449C64.1377 13.7246 65.0781 13.3145 66.2617 13.3145C67.5918 13.3145 68.4971 13.8242 68.9775 14.8438C69.2939 14.3867 69.7041 14.0176 70.208 13.7363C70.7178 13.4551 71.3184 13.3145 72.0098 13.3145C74.0957 13.3145 75.1562 14.4189 75.1914 16.6279V23H73.5654V16.7246C73.5654 16.0449 73.4102 15.5381 73.0996 15.2041C72.7891 14.8643 72.2676 14.6943 71.5352 14.6943C70.9316 14.6943 70.4307 14.876 70.0322 15.2393C69.6338 15.5967 69.4023 16.0801 69.3379 16.6895V23H67.7031V16.7686C67.7031 15.3857 67.0264 14.6943 65.6729 14.6943C64.6064 14.6943 63.877 15.1484 63.4844 16.0566V23H61.8584V13.4902H63.3965ZM77.2217 18.1572C77.2217 17.2256 77.4033 16.3877 77.7666 15.6436C78.1357 14.8994 78.6455 14.3252 79.2959 13.9209C79.9521 13.5166 80.6992 13.3145 81.5371 13.3145C82.832 13.3145 83.8779 13.7627 84.6748 14.6592C85.4775 15.5557 85.8789 16.748 85.8789 18.2363V18.3506C85.8789 19.2764 85.7002 20.1084 85.3428 20.8467C84.9912 21.5791 84.4844 22.1504 83.8223 22.5605C83.166 22.9707 82.4102 23.1758 81.5547 23.1758C80.2656 23.1758 79.2197 22.7275 78.417 21.8311C77.6201 20.9346 77.2217 19.748 77.2217 18.2715V18.1572ZM78.8564 18.3506C78.8564 19.4053 79.0996 20.252 79.5859 20.8906C80.0781 21.5293 80.7344 21.8486 81.5547 21.8486C82.3809 21.8486 83.0371 21.5264 83.5234 20.8818C84.0098 20.2314 84.2529 19.3232 84.2529 18.1572C84.2529 17.1143 84.0039 16.2705 83.5059 15.626C83.0137 14.9756 82.3574 14.6504 81.5371 14.6504C80.7344 14.6504 80.0869 14.9697 79.5947 15.6084C79.1025 16.2471 78.8564 17.1611 78.8564 18.3506ZM89.4561 13.4902L89.5088 14.6855C90.2354 13.7715 91.1846 13.3145 92.3564 13.3145C94.3662 13.3145 95.3799 14.4482 95.3975 16.7158V23H93.7715V16.707C93.7656 16.0215 93.6074 15.5146 93.2969 15.1865C92.9922 14.8584 92.5146 14.6943 91.8643 14.6943C91.3369 14.6943 90.874 14.835 90.4756 15.1162C90.0771 15.3975 89.7666 15.7666 89.5439 16.2236V23H87.918V13.4902H89.4561ZM100.056 11.1875V13.4902H101.831V14.7471H100.056V20.6445C100.056 21.0254 100.135 21.3125 100.293 21.5059C100.451 21.6934 100.721 21.7871 101.102 21.7871C101.289 21.7871 101.547 21.752 101.875 21.6816V23C101.447 23.1172 101.031 23.1758 100.627 23.1758C99.9004 23.1758 99.3525 22.9561 98.9834 22.5166C98.6143 22.0771 98.4297 21.4531 98.4297 20.6445V14.7471H96.6982V13.4902H98.4297V11.1875H100.056Z" fill="white"/>
<path d="M28.4932 23.6319C28.444 22.7288 27.8575 21.9438 27.0055 21.641V10.501L27.7055 10.9252C27.945 11.076 28.2224 11.1562 28.5056 11.1562C29.1759 11.1564 29.7649 10.7121 29.9489 10.0674C30.1328 9.42301 29.8668 8.73464 29.2972 8.38119L15.8035 0.230244C15.3175 -0.074907 14.7001 -0.0769673 14.2122 0.225437L0.700896 8.38531C0.187427 8.70855 -0.0806388 9.30924 0.0214598 9.9074C0.123558 10.5053 0.575906 10.9831 1.16744 11.1177C1.27801 11.1429 1.39109 11.1557 1.50464 11.1557C1.78323 11.1562 2.05611 11.0774 2.29167 10.9286L3.00132 10.501V21.641C2.14928 21.9438 1.56255 22.7288 1.51356 23.6319C0.610015 23.9462 0.00337504 24.7969 0.000856912 25.7537C0.00177259 26.2606 0.177126 26.7518 0.497386 27.1449C0.19109 27.3228 0.00200151 27.6499 0.000856912 28.004V29.0042C0.000856912 29.5566 0.448626 30.0043 1.00101 30.0043H29.0058C29.5582 30.0043 30.0059 29.5566 30.0059 29.0042V28.004C30.0041 27.6497 29.815 27.3225 29.5087 27.1444C29.8294 26.7516 30.0048 26.2606 30.0059 25.7537C30.0034 24.7969 29.3968 23.9462 28.4932 23.6319ZM27.5054 23.7534C27.5066 23.8036 27.5027 23.8539 27.494 23.9034C27.4935 23.9121 27.4935 23.921 27.494 23.9299C27.494 23.9389 27.4864 23.946 27.4855 23.9549C27.4851 23.9798 27.4869 24.0048 27.491 24.0293C27.4862 24.095 27.5006 24.1605 27.5325 24.2179C27.5434 24.2465 27.5574 24.274 27.5739 24.2999C27.5933 24.326 27.6153 24.3498 27.6396 24.3715C27.6609 24.394 27.6845 24.4143 27.7094 24.4324C27.7383 24.4496 27.7687 24.4636 27.8005 24.4745C27.8218 24.4862 27.8442 24.4965 27.8671 24.505C27.879 24.507 27.8909 24.5084 27.9031 24.5089C27.9086 24.5089 27.9125 24.5135 27.918 24.5139C28.5404 24.5956 29.0058 25.126 29.0058 25.7537C29.0014 26.4423 28.4442 26.9995 27.7554 27.0039H22.2545C21.564 27.0039 21.0043 26.4442 21.0043 25.7537C21.0034 25.4202 21.1378 25.1006 21.377 24.8681C21.5304 24.7117 21.7238 24.6007 21.936 24.5469H21.9395C21.9875 24.5343 22.0333 24.5146 22.0754 24.4885C22.0825 24.4839 22.086 24.4764 22.0926 24.472C22.1203 24.4507 22.146 24.4265 22.1686 24.3999C22.1904 24.3793 22.21 24.3569 22.2277 24.3324C22.2435 24.3047 22.2565 24.2756 22.2666 24.2454C22.2796 24.2165 22.2899 24.1866 22.2975 24.1559C22.3025 24.0913 22.3014 24.0263 22.2945 23.9618C22.2945 23.954 22.2945 23.9464 22.2945 23.9384C22.2854 23.9144 22.2741 23.8915 22.2611 23.8693C22.254 23.8452 22.2451 23.8217 22.2345 23.7988C22.0832 23.5611 22.0033 23.2851 22.0045 23.0033C22.0026 22.2822 22.5152 21.6622 23.2237 21.5286C23.9324 21.3949 24.6355 21.7854 24.8964 22.4575C24.9699 22.6301 25.007 22.8158 25.0049 23.0033C25.0049 23.2668 24.9349 23.5257 24.8021 23.7534C24.7112 23.9082 24.7103 24.0998 24.7998 24.2552C24.8891 24.4109 25.0551 24.5068 25.2345 24.5064C25.414 24.5059 25.5795 24.4095 25.6681 24.2534C25.8881 23.8734 26.0042 23.4423 26.0051 23.0033C26.0046 22.8487 25.9895 22.6947 25.9602 22.5431C26.0566 22.518 26.1557 22.5044 26.2553 22.5031C26.9457 22.5031 27.5054 23.0628 27.5054 23.7534ZM21.0043 21.5029V19.5026H22.0045V21.0158C21.686 21.2559 21.4299 21.5686 21.2568 21.928C21.1028 21.8417 21.0064 21.6796 21.0043 21.5029ZM23.5048 16.5021C23.7809 16.5021 24.0048 16.726 24.0048 17.0021V18.5025H23.0046V16.5021H23.5048ZM23.5048 20.5028C23.3368 20.5025 23.1692 20.5192 23.0046 20.5527V19.5026H24.0048V20.5589C23.8404 20.5234 23.6729 20.5046 23.5048 20.5028ZM22.0045 18.5025H21.0043V17.0021C21.0043 16.726 21.2282 16.5021 21.5045 16.5021H22.0045V18.5025ZM1.76721 10.078C1.53485 10.2215 1.23062 10.1526 1.08319 9.92274C0.935769 9.69314 0.999866 9.38753 1.22696 9.23644L14.7374 1.07588C14.8168 1.02574 14.9091 0.999188 15.0034 0.999417C15.1014 0.999646 15.1973 1.0278 15.2799 1.08046L28.7741 9.23186C28.9245 9.32824 29.0122 9.49764 29.0037 9.6762C28.9955 9.85475 28.8925 10.0152 28.7338 10.0974C28.575 10.1794 28.3845 10.1704 28.2341 10.0741L15.2623 2.22574C15.1032 2.12914 14.9036 2.12914 14.7443 2.22574L1.76721 10.078ZM15.0034 3.23826L26.0051 9.89504V21.5205C25.8586 21.5373 25.7139 21.5684 25.5736 21.6139C25.4197 21.3811 25.2277 21.1763 25.0049 21.0078V17.0021C25.0049 16.1736 24.3333 15.502 23.5048 15.502H21.5045C20.6758 15.502 20.0042 16.1736 20.0042 17.0021V21.5029C20.006 22.14 20.411 22.7061 21.0133 22.9138C21.0133 22.9442 21.0043 22.9726 21.0043 23.0033C21.0059 23.2745 21.0517 23.5437 21.1403 23.8004C20.967 23.8983 20.8081 24.0201 20.6683 24.1618C19.9041 24.9184 19.7853 26.1113 20.3853 27.0039H19.004V16.5021C19.004 15.3974 18.1085 14.5018 17.0037 14.5018H13.0031C11.8983 14.5018 11.0026 15.3974 11.0026 16.5021V27.0039H9.62147C9.87008 26.6344 10.0026 26.199 10.0024 25.7537C10.0054 25.1586 9.76844 24.5872 9.34494 24.1689C9.20301 24.0245 9.04185 23.9006 8.86581 23.8008C8.95463 23.5442 9.00087 23.2748 9.00224 23.0033C9.00224 22.9717 8.99789 22.9437 8.99675 22.9126C9.59675 22.7031 9.99965 22.1384 10.0024 21.5029V17.0021C10.0024 16.1736 9.33075 15.502 8.50228 15.502H6.50197C5.67328 15.502 5.00163 16.1736 5.00163 17.0021V21.0123C4.78164 21.1804 4.59026 21.383 4.43505 21.6126C4.29403 21.5675 4.14867 21.5363 4.00147 21.5199V9.89504L15.0034 3.23826ZM18.0039 27.0039H12.0029V16.5021C12.0029 15.9498 12.4507 15.502 13.0031 15.502H17.0037C17.5561 15.502 18.0039 15.9498 18.0039 16.5021V27.0039ZM8.50228 16.5021C8.77836 16.5021 9.00224 16.726 9.00224 17.0021V18.5025H8.00209V16.5021H8.50228ZM8.75226 21.9246C8.5776 21.5677 8.32052 21.2575 8.00209 21.0199V19.5026H9.00224V21.5029C8.99973 21.6778 8.9045 21.8383 8.75226 21.9246ZM7.00194 18.5025H6.00178V17.0021C6.00178 16.726 6.22567 16.5021 6.50197 16.5021H7.00194V18.5025ZM6.00178 19.5026H7.00194V20.5627C6.67183 20.4966 6.33189 20.4966 6.00178 20.5627V19.5026ZM2.08976 24.5139C2.09525 24.5139 2.09914 24.51 2.10464 24.5089C2.11677 24.508 2.12867 24.5061 2.14058 24.5034C2.1637 24.4949 2.18613 24.4846 2.20765 24.4729C2.23901 24.4622 2.26923 24.4482 2.29762 24.4315C2.32349 24.413 2.34752 24.3917 2.36927 24.3683C2.39285 24.3475 2.41437 24.3244 2.43383 24.2994C2.45054 24.2724 2.46473 24.244 2.47618 24.2145C2.50777 24.157 2.52196 24.0916 2.51669 24.0263C2.52036 24.0023 2.52219 23.9778 2.52219 23.9533C2.52219 23.9444 2.51532 23.9373 2.51372 23.9283C2.51212 23.9194 2.51372 23.9109 2.51372 23.9018C2.50479 23.8528 2.50067 23.8031 2.50113 23.7534C2.50113 23.0628 3.06107 22.5031 3.75149 22.5031C3.8513 22.5044 3.95042 22.5177 4.04703 22.5431C4.01727 22.6947 4.00216 22.8487 4.00147 23.0033C4.00239 23.4421 4.11845 23.8732 4.33799 24.2534C4.47603 24.4929 4.78209 24.575 5.02154 24.437C5.26099 24.299 5.34318 23.9929 5.20514 23.7534C5.07191 23.5259 5.00163 23.267 5.00163 23.0033C5.00048 22.8105 5.0394 22.6194 5.11609 22.4426C5.35829 21.8413 5.96035 21.4642 6.60705 21.5089C7.25398 21.5535 7.79835 22.0098 7.95562 22.6386C7.98813 22.7574 8.00369 22.8801 8.00209 23.0033C8.00346 23.2844 7.92426 23.56 7.77363 23.7974C7.76287 23.8203 7.75394 23.8441 7.74707 23.8684C7.73402 23.8901 7.72281 23.913 7.71365 23.9368V23.9604C7.70678 24.0247 7.70564 24.0897 7.71067 24.1545C7.71823 24.1852 7.72853 24.2152 7.74158 24.244C7.75165 24.2742 7.7647 24.3033 7.78072 24.331C7.79812 24.3553 7.81781 24.3779 7.83956 24.3985C7.86245 24.4251 7.88786 24.4491 7.91556 24.4704C7.9222 24.475 7.92563 24.4825 7.93273 24.4869C7.97485 24.513 8.02063 24.5329 8.06871 24.5455H8.07214C8.28732 24.6002 8.48305 24.7135 8.6378 24.8731C8.87313 25.1052 9.00476 25.423 9.00224 25.7537C9.00224 26.4442 8.44253 27.0039 7.75211 27.0039H2.25115C1.56255 26.9995 1.00536 26.4423 1.00101 25.7537C1.00101 25.1256 1.46686 24.5952 2.08976 24.5139ZM1.00101 28.004H9.00224V29.0042H1.00101V28.004ZM10.0024 29.0042V28.004H20.0042V29.0042H10.0024ZM21.0043 29.0042V28.004H29.0058V29.0042H21.0043Z" fill="white"/>
<path d="M17.0037 22.0031C17.0037 22.2792 16.7798 22.5031 16.5035 22.5031C16.2274 22.5031 16.0035 22.2792 16.0035 22.0031C16.0035 21.7268 16.2274 21.5029 16.5035 21.5029C16.7798 21.5029 17.0037 21.7268 17.0037 22.0031Z" fill="white"/>
<path d="M13.0031 13.5015H17.0037C17.5561 13.5015 18.0039 13.0535 18.0039 12.5013V8.50046C18.0039 6.84331 16.6605 5.5 15.0034 5.5C13.3462 5.5 12.0029 6.84331 12.0029 8.50046V12.5013C12.0029 13.0535 12.4507 13.5015 13.0031 13.5015ZM13.0031 10.5008H14.5032V12.5013H13.0031V10.5008ZM15.5034 12.5013V10.5008H17.0037V12.5013H15.5034ZM17.0037 8.50046V9.50062H15.5034V6.57112C16.384 6.79844 17.0003 7.59119 17.0037 8.50046ZM14.5032 6.57112V9.50062H13.0031V8.50046C13.0065 7.59119 13.6228 6.79844 14.5032 6.57112Z" fill="white"/>
</svg>
