<svg width="80" height="80" fill="none" xmlns="http://www.w3.org/2000/svg"><g clip-path="url(#clip0)" fill="#F29C2B"><path d="M55 56.281a1.565 1.565 0 0 0 0 3.131 1.565 1.565 0 0 0 0-3.13zM41.563 28.728c0-.865-.7-1.566-1.563-1.566a1.565 1.565 0 1 0 0 3.131c.862 0 1.563-.7 1.563-1.565zM25 59.412a1.565 1.565 0 0 0 0-3.13 1.565 1.565 0 0 0 0 3.13z"/><path d="M79.072 66.852l-8.448-3.76V28.727c0-.62-.37-1.194-.96-1.445l-28.102-12.11V3.678a1.563 1.563 0 1 0-3.125 0v11.494l-28.102 12.11c-.558.232-.96.8-.96 1.445V63.09L.928 66.85a1.567 1.567 0 0 0-.793 2.067 1.56 1.56 0 0 0 2.062.795l8.75-3.895L39.384 78.07c.376.162.835.172 1.235 0l28.434-12.253 8.75 3.895a1.561 1.561 0 0 0 2.063-.795 1.567 1.567 0 0 0-.793-2.066zm-40.635-48.27v3.884c0 .864.7 1.565 1.563 1.565.862 0 1.563-.701 1.563-1.565V18.58l23.544 10.147L40 39.548l-25.107-10.82 23.544-10.147zm-17.72 41.173a1.562 1.562 0 0 0-2.062-.795L12.5 61.7V31.105l25.938 11.178v31.973l-23.6-10.17 5.086-2.264a1.568 1.568 0 0 0 .793-2.067zm20.846 14.5V42.284l25.936-11.178V61.7l-6.154-2.74a1.56 1.56 0 0 0-2.062.795c-.35.79.005 1.715.793 2.067l5.086 2.264-23.6 10.17z"/></g><defs><clipPath id="clip0"><path fill="#fff" d="M0 0h80v80H0z"/></clipPath></defs></svg>