<svg width="20" height="20" fill="none" xmlns="http://www.w3.org/2000/svg"><g clip-path="url(#clip0)"><path d="M16.074 20c-.832 0-1.837-.209-2.942-.626-2.423-.913-5.06-2.719-7.424-5.082C3.344 11.926 1.538 9.29.624 6.866c-.83-2.202-.833-4.01-.004-4.838.12-.119.24-.247.366-.379C1.74.855 2.594-.039 3.725.001c.78.033 1.535.517 2.309 1.48 2.286 2.842 1.255 3.855.063 5.03l-.211.209c-.195.195-.564 1.098 2.866 4.528 1.12 1.119 2.074 1.938 2.836 2.434.48.312 1.34.784 1.692.432l.212-.214c1.173-1.19 2.186-2.217 5.027.066.963.774 1.447 1.529 1.479 2.31.046 1.13-.854 1.986-1.65 2.741-.13.125-.258.246-.378.365-.41.412-1.068.618-1.896.618zM3.644.673c-.803 0-1.53.764-2.172 1.44-.129.136-.254.268-.377.39-.617.617-.554 2.236.159 4.127.881 2.336 2.632 4.888 4.93 7.186 2.299 2.298 4.85 4.049 7.186 4.93 1.89.714 3.51.774 4.126.159.123-.123.254-.248.39-.377.691-.656 1.475-1.4 1.44-2.226-.023-.567-.436-1.177-1.227-1.813-2.367-1.904-3.03-1.232-4.127-.118l-.215.217c-.525.526-1.377.41-2.534-.343-.803-.522-1.795-1.37-2.946-2.523C5.43 8.876 4.52 7.135 5.41 6.242l.215-.212c1.116-1.098 1.79-1.76-.115-4.129C4.874 1.111 4.264.698 3.697.673h-.052z" fill="#F29C2B"/></g><defs><clipPath id="clip0"><path fill="#fff" d="M0 0h20v20H0z"/></clipPath></defs></svg>