<svg width="30" height="30" fill="none" xmlns="http://www.w3.org/2000/svg"><path d="M25.607 4.393A14.902 14.902 0 0 0 15 0C10.993 0 7.226 1.56 4.393 4.393A14.902 14.902 0 0 0 0 15c0 4.007 1.56 7.773 4.393 10.607A14.902 14.902 0 0 0 15 30c4.007 0 7.773-1.56 10.607-4.393A14.902 14.902 0 0 0 30 15c0-4.007-1.56-7.774-4.393-10.607zM15 28.243C7.698 28.242 1.758 22.301 1.758 15 1.758 7.698 7.698 1.758 15 1.758c7.302 0 13.242 5.94 13.242 13.242 0 7.302-5.94 13.242-13.242 13.242z" fill="#fff"/><path d="M15.941 14.121H14.06a1.948 1.948 0 0 1-1.946-1.945c0-1.073.873-1.945 1.946-1.945h3.765a.879.879 0 1 0 0-1.758H15.88V6.528a.879.879 0 0 0-1.758 0v1.945h-.062a3.707 3.707 0 0 0-3.703 3.703 3.707 3.707 0 0 0 3.703 3.703h1.883c1.072 0 1.945.873 1.945 1.945a1.947 1.947 0 0 1-1.945 1.946h-3.766a.879.879 0 0 0 0 1.758h1.945v1.945a.879.879 0 0 0 1.758 0v-1.945h.063a3.707 3.707 0 0 0 3.703-3.704 3.707 3.707 0 0 0-3.704-3.703z" fill="#fff"/></svg>