<svg width="80" height="80" fill="none" xmlns="http://www.w3.org/2000/svg"><path d="M73.782 31.517a5.243 5.243 0 0 0 1.336-5.408 5.243 5.243 0 0 0-4.26-3.59l-17.504-2.544a1.054 1.054 0 0 1-.794-.577L44.73 3.536A5.243 5.243 0 0 0 40 .596a5.243 5.243 0 0 0-4.732 2.94L27.44 19.398c-.154.312-.45.527-.794.577L9.142 22.52a5.243 5.243 0 0 0-4.259 3.59 5.243 5.243 0 0 0 1.335 5.408l12.667 12.347c.248.243.362.592.303.934l-2.99 17.434a5.243 5.243 0 0 0 2.099 5.16 5.244 5.244 0 0 0 5.556.402l15.656-8.231c.308-.162.675-.162.983 0l15.656 8.23a5.248 5.248 0 0 0 5.556-.401 5.243 5.243 0 0 0 2.099-5.16l-2.99-17.434a1.056 1.056 0 0 1 .303-.934l12.666-12.346zM56.653 45.512l2.99 17.434c.1.583-.26.916-.42 1.032-.16.116-.587.356-1.11.08l-15.657-8.231a5.275 5.275 0 0 0-4.91 0l-15.657 8.23a1.029 1.029 0 0 1-1.111-.08 1.028 1.028 0 0 1-.42-1.031l2.99-17.434a5.275 5.275 0 0 0-1.517-4.67L9.165 28.496a1.028 1.028 0 0 1-.267-1.082c.06-.188.266-.633.852-.718l17.504-2.544a5.275 5.275 0 0 0 3.972-2.886l7.829-15.862c.262-.53.748-.588.946-.588.197 0 .684.057.946.588l7.828 15.862a5.274 5.274 0 0 0 3.972 2.886l17.505 2.544c.586.085.79.53.852.718.06.188.157.668-.267 1.082L58.17 40.842a5.274 5.274 0 0 0-1.517 4.67zm8.001-41.977a2.11 2.11 0 0 0-2.948.467l-2.24 3.083a2.11 2.11 0 0 0 3.414 2.481l2.24-3.083a2.11 2.11 0 0 0-.466-2.948zM20.525 7.073l-2.24-3.083a2.111 2.111 0 0 0-3.415 2.48l2.24 3.083a2.107 2.107 0 0 0 2.948.467 2.11 2.11 0 0 0 .467-2.947zM7.742 47.942a2.11 2.11 0 0 0-2.659-1.355L1.46 47.765a2.11 2.11 0 0 0 1.304 4.014l3.625-1.178a2.11 2.11 0 0 0 1.354-2.659zM40 71.373a2.11 2.11 0 0 0-2.11 2.11v3.811a2.11 2.11 0 0 0 4.221 0v-3.81a2.11 2.11 0 0 0-2.11-2.111zm38.541-23.605l-3.624-1.178a2.11 2.11 0 0 0-1.305 4.014l3.625 1.178a2.111 2.111 0 0 0 1.304-4.014z" fill="#F29C2B"/></svg>