<?xml version="1.0" encoding="iso-8859-1"?>
<!-- Generator: Adobe Illustrator 16.0.0, SVG Export Plug-In . SVG Version: 6.00 Build 0)  -->
<!DOCTYPE svg PUBLIC "-//W3C//DTD SVG 1.1//EN" "http://www.w3.org/Graphics/SVG/1.1/DTD/svg11.dtd">
<svg version="1.1" id="Capa_1" xmlns="http://www.w3.org/2000/svg" xmlns:xlink="http://www.w3.org/1999/xlink" x="0px" y="0px"
	 width="180.526px" height="180.526px" viewBox="0 0 180.526 180.526" style="enable-background:new 0 0 180.526 180.526;"
	 xml:space="preserve">
<g>
	<path d="M129.679,73.921c-9.049,4.169-14.127,11.507-15.066,20.88c-5.553-15.161-7.768-24.969-0.701-34.116
		c5.39-0.696,10.384-3.132,14.238-7.27c4.478-4.788,6.908-11.121,6.855-17.834l-0.073-8.213c-0.006-0.725-0.369-1.4-0.986-1.782
		c-0.602-0.388-1.371-0.454-2.036-0.166c-0.216,0.095-21.314,9.086-34.253,0.345c-0.994-0.665-2.339-0.401-3.003,0.578
		c-0.67,0.988-0.398,2.333,0.583,3c11.889,8.021,28.627,3.533,35.403,1.179l0.048,5.092c0.047,5.601-1.978,10.876-5.695,14.85
		c-3.28,3.513-7.558,5.548-12.155,6.001c-0.228-0.01-0.448,0.016-0.665,0.074c-0.348,0.021-0.686,0.113-1.033,0.113
		c-0.059,0-0.105,0-0.158,0c-10.806,0-19.651-9.26-19.749-20.714L91.046,14.45c-0.026-3.283,3.457-5.632,5.529-6.734
		c4.021-2.139,9.521-3.341,15.464-3.391c0.101-0.006,0.19-0.006,0.285-0.006c9.666,0,16.405,3.942,16.438,7.539
		c0.005,0.735-1.287,2.401-4.878,4.081c-3.491,1.632-7.789,2.603-11.502,2.637c-0.116,0-0.237,0-0.354,0
		c-7.192,0-12.239-1.906-12.492-2.921c0-0.114,0.163-0.599,0.886-1.298c1.751-1.655,5.579-3.293,11.085-3.119
		c3.696,0.135,6.708,1.149,8.058,2.689c0.786,0.884,2.151,0.981,3.043,0.177c0.896-0.788,0.98-2.139,0.189-3.035
		c-2.178-2.473-6.133-3.941-11.132-4.158c-5.901-0.264-11.217,1.416-14.297,4.385c-1.424,1.381-2.164,2.906-2.148,4.385
		c0.016,1.854,1.173,4.369,6.6,5.924c2.964,0.846,6.84,1.29,10.61,1.279c4.298-0.031,9.266-1.171,13.289-3.035
		c4.788-2.225,7.409-5.07,7.383-8.034c-0.063-6.729-9.234-11.886-21.083-11.815c-6.629,0.058-12.831,1.444-17.447,3.896
		c-5.081,2.7-7.868,6.455-7.823,10.589l0.182,21.489c0.108,12.981,9.655,23.499,21.714,24.741
		c-7.014,11.814-2.062,25.051,3.639,40.159c1.413,3.744,3.063,7.541,4.74,11.359c0.29,0.653,0.575,1.318,0.865,1.972
		c-5.036-4.113-10.89-5.969-17.218-5.558c0.569-0.991,1.081-2.036,1.387-3.265c0.918-3.723-0.005-7.662-2.75-11.633
		c-3.072-4.49-6.942-6.573-12.182-6.573c-4.185,0-9.418,1.315-17.489,4.406c-6.431,2.462-12.274,2.785-21.655,1.456
		c-0.805-0.095-1.566,0.216-2.036,0.849c-0.469,0.633-0.556,1.472-0.227,2.194c0.644,1.392,16.018,34.103,36.471,34.103
		c3.937,0,7.799-1.223,11.48-3.617c1.951-1.255,4.153-4.504,4.396-8.026c0.132-1.813-0.311-3.485-1.171-4.968
		c10.854-2.6,20.155,2.447,26.452,14.513c3.617,11.164,4.704,22.612-2.336,34.288c-4.262,7.077-10.927,11.797-18.764,13.3
		c-8.774,1.688-18.322-0.728-26.164-6.666c-0.959-0.728-2.304-0.538-3.024,0.422c-0.717,0.949-0.536,2.305,0.422,3.032
		c6.961,5.264,15.153,8.063,23.203,8.063c2.145,0,4.282-0.195,6.387-0.596c9.049-1.735,16.743-7.183,21.642-15.314
		c7.531-12.487,6.688-24.711,3.223-36.239c0.053-0.411,0.026-0.822-0.169-1.229c-0.132-0.285-0.301-0.506-0.443-0.78
		c-1.798-5.479-4.118-10.769-6.349-15.868c-0.195-0.448-0.38-0.891-0.575-1.339c0.011-0.228,0.006-0.454-0.063-0.686
		c-4.234-14.486-0.269-25.36,11.175-30.628c1.081-0.514,1.556-1.783,1.055-2.864C132.052,73.897,130.766,73.407,129.679,73.921z
		 M91.283,122.961c-2.975,1.936-6.049,2.922-9.126,2.922c-14.088,0-26.283-19.833-30.741-28.076
		c7.91,0.766,13.634,0.143,19.73-2.172c7.549-2.896,12.318-4.137,15.947-4.137c3.787,0,6.368,1.405,8.625,4.696
		c2.007,2.922,2.722,5.658,2.125,8.147c-0.562,2.305-2.138,4.029-3.443,5.137c-11.47,6.085-18.359-0.132-18.678-0.454
		c-0.86-0.812-2.22-0.791-3.045,0.063c-0.833,0.854-0.81,2.226,0.047,3.043c0.258,0.259,4.606,4.361,12.01,4.361
		c2.305,0,4.931-0.443,7.792-1.477c0.833,0.943,1.308,1.993,1.21,3.264C93.574,120.53,92.04,122.466,91.283,122.961z"/>
</g>
<g>
</g>
<g>
</g>
<g>
</g>
<g>
</g>
<g>
</g>
<g>
</g>
<g>
</g>
<g>
</g>
<g>
</g>
<g>
</g>
<g>
</g>
<g>
</g>
<g>
</g>
<g>
</g>
<g>
</g>
</svg>
