<svg xmlns="http://www.w3.org/2000/svg" width="180.526" height="180.526"><path d="M129.679 73.921c-9.049 4.169-14.127 11.507-15.066 20.88-5.553-15.161-7.768-24.969-.701-34.116 5.39-.696 10.384-3.132 14.238-7.27 4.478-4.788 6.908-11.121 6.855-17.834l-.073-8.213a2.105 2.105 0 0 0-.986-1.782 2.176 2.176 0 0 0-2.036-.166c-.216.095-21.314 9.086-34.253.345a2.174 2.174 0 0 0-3.003.578 2.166 2.166 0 0 0 .583 3c11.889 8.021 28.627 3.533 35.403 1.179l.048 5.092c.047 5.601-1.978 10.876-5.695 14.85-3.28 3.513-7.558 5.548-12.155 6.001a2.182 2.182 0 0 0-.665.074c-.348.021-.686.113-1.033.113h-.158c-10.806 0-19.651-9.26-19.749-20.714l-.187-21.488c-.026-3.283 3.457-5.632 5.529-6.734 4.021-2.139 9.521-3.341 15.464-3.391.101-.006.19-.006.285-.006 9.666 0 16.405 3.942 16.438 7.539.005.735-1.287 2.401-4.878 4.081-3.491 1.632-7.789 2.603-11.502 2.637h-.354c-7.192 0-12.239-1.906-12.492-2.921 0-.114.163-.599.886-1.298 1.751-1.655 5.579-3.293 11.085-3.119 3.696.135 6.708 1.149 8.058 2.689a2.148 2.148 0 0 0 3.043.177 2.14 2.14 0 0 0 .189-3.035c-2.178-2.473-6.133-3.941-11.132-4.158-5.901-.264-11.217 1.416-14.297 4.385-1.424 1.381-2.164 2.906-2.148 4.385.016 1.854 1.173 4.369 6.6 5.924 2.964.846 6.84 1.29 10.61 1.279 4.298-.031 9.266-1.171 13.289-3.035 4.788-2.225 7.409-5.07 7.383-8.034C133.039 5.086 123.868-.071 112.019 0c-6.629.058-12.831 1.444-17.447 3.896-5.081 2.7-7.868 6.455-7.823 10.589l.182 21.489c.108 12.981 9.655 23.499 21.714 24.741-7.014 11.814-2.062 25.051 3.639 40.159 1.413 3.744 3.063 7.541 4.74 11.359.29.653.575 1.318.865 1.972-5.036-4.113-10.89-5.969-17.218-5.558.569-.991 1.081-2.036 1.387-3.265.918-3.723-.005-7.662-2.75-11.633-3.072-4.49-6.942-6.573-12.182-6.573-4.185 0-9.418 1.315-17.489 4.406-6.431 2.462-12.274 2.785-21.655 1.456-.805-.095-1.566.216-2.036.849a2.17 2.17 0 0 0-.227 2.194c.644 1.392 16.018 34.103 36.471 34.103 3.937 0 7.799-1.223 11.48-3.617 1.951-1.255 4.153-4.504 4.396-8.026.132-1.813-.311-3.485-1.171-4.968 10.854-2.6 20.155 2.447 26.452 14.513 3.617 11.164 4.704 22.612-2.336 34.288-4.262 7.077-10.927 11.797-18.764 13.3-8.774 1.688-18.322-.728-26.164-6.666a2.142 2.142 0 0 0-3.024.422 2.166 2.166 0 0 0 .422 3.032c6.961 5.264 15.153 8.063 23.203 8.063 2.145 0 4.282-.195 6.387-.596 9.049-1.735 16.743-7.183 21.642-15.314 7.531-12.487 6.688-24.711 3.223-36.239.053-.411.026-.822-.169-1.229-.132-.285-.301-.506-.443-.78-1.798-5.479-4.118-10.769-6.349-15.868-.195-.448-.38-.891-.575-1.339a2.01 2.01 0 0 0-.063-.686c-4.234-14.486-.269-25.36 11.175-30.628 1.081-.514 1.556-1.783 1.055-2.864-.515-1.085-1.801-1.575-2.888-1.061zm-38.396 49.04c-2.975 1.936-6.049 2.922-9.126 2.922-14.088 0-26.283-19.833-30.741-28.076 7.91.766 13.634.143 19.73-2.172 7.549-2.896 12.318-4.137 15.947-4.137 3.787 0 6.368 1.405 8.625 4.696 2.007 2.922 2.722 5.658 2.125 8.147-.562 2.305-2.138 4.029-3.443 5.137-11.47 6.085-18.359-.132-18.678-.454a2.168 2.168 0 0 0-3.045.063 2.143 2.143 0 0 0 .047 3.043c.258.259 4.606 4.361 12.01 4.361 2.305 0 4.931-.443 7.792-1.477.833.943 1.308 1.993 1.21 3.264-.162 2.252-1.696 4.188-2.453 4.683z"/></svg>