<svg width="80" height="80" viewBox="0 0 80 80" fill="none" xmlns="http://www.w3.org/2000/svg">
<g clip-path="url(#clip0)">
<path d="M55 56.2811C54.137 56.2811 53.4375 56.9826 53.4375 57.8467C53.4375 58.7108 54.137 59.4122 55 59.4122C55.8624 59.4122 56.5625 58.7108 56.5625 57.8467C56.5625 56.9826 55.8624 56.2811 55 56.2811Z" fill="#F29C2B"/>
<path d="M41.5625 28.728C41.5625 27.8633 40.8624 27.1625 40 27.1625C39.1376 27.1625 38.4375 27.8633 38.4375 28.728C38.4375 29.5921 39.1376 30.2936 40 30.2936C40.8624 30.2936 41.5625 29.5921 41.5625 28.728Z" fill="#F29C2B"/>
<path d="M25 59.4122C25.8624 59.4122 26.5625 58.7108 26.5625 57.8467C26.5625 56.9826 25.8624 56.2811 25 56.2811C24.1376 56.2811 23.4375 56.9826 23.4375 57.8467C23.4375 58.7108 24.1376 59.4122 25 59.4122Z" fill="#F29C2B"/>
<path d="M79.0716 66.8518L70.6244 63.0914V28.728C70.6244 28.1079 70.2539 27.5337 69.6649 27.2829L41.5625 15.1725V3.67908C41.5625 2.81436 40.8624 2.11353 40 2.11353C39.1369 2.11353 38.4375 2.81436 38.4375 3.67908V15.1725L10.3351 27.2829C9.77658 27.5153 9.37558 28.0822 9.37558 28.728V63.0914L0.928317 66.8518C0.139742 67.2034 -0.215482 68.1281 0.134859 68.9182C0.48276 69.7034 1.40317 70.0667 2.19724 69.7132L10.9479 65.8177L39.3829 78.0712C39.7589 78.2333 40.2185 78.243 40.6177 78.0712L69.0521 65.8177L77.8027 69.7132C78.5998 70.0679 79.5184 69.7004 79.8651 68.9182C80.2154 68.1281 79.8602 67.2034 79.0716 66.8518ZM38.4375 18.5812V22.4658C38.4375 23.3299 39.1369 24.0313 40 24.0313C40.8624 24.0313 41.5625 23.3299 41.5625 22.4658V18.5812L65.1074 28.728L40 39.5481L14.8926 28.728L38.4375 18.5812ZM20.7171 59.7548C20.3662 58.9647 19.4427 58.6094 18.6548 58.9598L12.5 61.7001V31.1051L38.4375 42.2829V74.2558L14.8382 64.0858L19.9237 61.8218C20.7123 61.4702 21.0675 60.5449 20.7171 59.7548ZM41.5625 74.2558V42.2829L67.4994 31.1051V61.7001L61.3452 58.9604C60.556 58.6094 59.6332 58.9647 59.2828 59.7554C58.9325 60.5455 59.2877 61.4702 60.0763 61.8218L65.1617 64.0858L41.5625 74.2558Z" fill="#F29C2B"/>
</g>
<defs>
<clipPath id="clip0">
<rect width="80" height="80" fill="white"/>
</clipPath>
</defs>
</svg>
