<svg width="30" height="30" viewBox="0 0 30 30" fill="none" xmlns="http://www.w3.org/2000/svg">
<path d="M25.6066 4.39336C22.7735 1.56023 19.0066 0 15 0C10.9934 0 7.22648 1.56023 4.39336 4.39336C1.56029 7.22648 0 10.9934 0 15C0 19.0066 1.56029 22.7735 4.39336 25.6066C7.22648 28.4398 10.9934 30 15 30C19.0066 30 22.7735 28.4398 25.6066 25.6066C28.4397 22.7735 30 19.0066 30 15C30 10.9934 28.4397 7.22648 25.6066 4.39336ZM15 28.2422C7.69822 28.2422 1.75781 22.3018 1.75781 15C1.75781 7.69822 7.69822 1.75781 15 1.75781C22.3018 1.75781 28.2422 7.69822 28.2422 15C28.2422 22.3018 22.3018 28.2422 15 28.2422Z" fill="white"/>
<path d="M15.9415 14.1212H14.0587C12.986 14.1212 12.1133 13.2486 12.1133 12.1759C12.1133 11.1033 12.986 10.2306 14.0587 10.2306H17.8243C18.3097 10.2306 18.7032 9.83712 18.7032 9.35173C18.7032 8.86634 18.3097 8.47282 17.8243 8.47282H15.879V6.52751C15.879 6.04212 15.4855 5.64861 15.0001 5.64861C14.5147 5.64861 14.1212 6.04212 14.1212 6.52751V8.47282H14.0587C12.0168 8.47282 10.3556 10.1341 10.3556 12.1759C10.3556 14.2178 12.0168 15.879 14.0587 15.879H15.9416C17.0142 15.879 17.8868 16.7517 17.8868 17.8243C17.8868 18.8969 17.0142 19.7696 15.9416 19.7696H12.1759C11.6905 19.7696 11.297 20.1632 11.297 20.6485C11.297 21.1339 11.6905 21.5275 12.1759 21.5275H14.1212V23.4728C14.1212 23.9582 14.5147 24.3517 15.0001 24.3517C15.4855 24.3517 15.879 23.9582 15.879 23.4728V21.5275H15.9415C17.9834 21.5275 19.6446 19.8662 19.6446 17.8243C19.6446 15.7825 17.9834 14.1212 15.9415 14.1212Z" fill="white"/>
</svg>
