<svg width="80" height="80" viewBox="0 0 80 80" fill="none" xmlns="http://www.w3.org/2000/svg">
<g clip-path="url(#clip0)">
<path d="M62.5501 62.4C60.4169 64.4 60.4169 67.7333 62.5501 69.8667C63.6169 70.9335 64.9501 71.4667 66.2834 71.4667C67.6167 71.4667 68.9501 70.9335 70.0167 69.8667C72.15 67.8667 72.15 64.5334 70.0167 62.4C68.0169 60.2667 64.6834 60.2667 62.5501 62.4ZM68.1501 68.1333C67.0834 69.2 65.4834 69.2 64.4169 68.1333C63.3503 67.0666 63.3501 65.4666 64.4169 64.4C64.9501 63.8667 65.6169 63.6 66.2836 63.6C66.9503 63.6 67.6169 63.8667 68.1503 64.4C69.2169 65.4667 69.2169 67.0667 68.1501 68.1333Z" fill="#F29C2B"/>
<path d="M79.0833 64L55.0833 40L64.5501 30.5333L64.5502 30.5331L70.1501 24.9333L70.1502 24.9331L78.2833 16.8C80.5501 14.5333 80.5501 10.8 78.2833 8.53328L71.4833 1.73328C70.4168 0.666719 68.9501 0 67.3501 0C65.7501 0 64.2833 0.666719 63.2168 1.73328L55.0835 9.86656L49.4835 15.4666L40.0168 24.9333L16.2833 1.2C14.8166 -0.266719 12.1501 -0.266719 10.6833 1.2L1.21677 10.6667C-0.383231 12.1334 -0.383231 14.6667 1.21677 16.2667L4.01677 19.0667L11.6168 26.6667L19.0833 34.1333C19.0833 34.1333 19.0833 34.1333 19.0835 34.1334L24.9501 40L3.54599 61.4041C3.14693 61.5802 2.93177 61.94 2.81677 62.4L0.0167694 78.4C0.0167694 78.9333 0.150051 79.3333 0.416769 79.6C0.683332 79.8667 0.950051 80 1.35005 80C1.48333 80 1.48333 80 1.61677 80L16.9988 77.1562C17.1052 77.1844 17.2201 77.2 17.3501 77.2C17.7501 77.2 18.1501 77.0667 18.2833 76.8L40.0166 55.0667L41.7499 56.8C41.7499 56.8 41.7499 56.8 41.7501 56.8002L41.7502 56.8003L45.4833 60.5334C45.4833 60.5334 45.4833 60.5334 45.4835 60.5336L45.4837 60.5337L64.0168 79.0669C64.6835 79.7336 65.4835 80.0002 66.2835 80.0002C67.0835 80.0002 67.8835 79.7334 68.4168 79.0669L79.0835 68.4002C80.2833 67.2 80.2833 65.2 79.0833 64ZM17.3501 73.8667L12.6847 69.2014L57.0154 24.9986L61.6168 29.6L17.3501 73.8667ZM65.0833 3.6C66.2833 2.4 68.4166 2.4 69.6166 3.6L76.4166 10.4C77.6166 11.6 77.6166 13.7333 76.4166 14.9333L69.2166 22.1333L57.8833 10.8L65.0833 3.6ZM56.0168 12.6667L61.6835 18.3334L67.3501 24L63.6168 27.7333L52.2835 16.4L56.0168 12.6667ZM25.6833 37L28.5501 34.1333C29.0833 33.6 29.0833 32.8 28.5501 32.2666C28.0168 31.7331 27.2168 31.7333 26.6833 32.2666L23.8166 35.1333L21.8833 33.2L26.5501 28.5333C27.0833 28 27.0833 27.2 26.5501 26.6666C26.0168 26.1331 25.2168 26.1333 24.6833 26.6666L20.0166 31.3333L18.1499 29.4666L20.9499 26.6666C21.4832 26.1333 21.4832 25.3333 20.9499 24.7998C20.4166 24.2664 19.6166 24.2666 19.0832 24.7998L16.2832 27.5998L14.4165 25.7331L19.0832 21.0664C19.6165 20.5331 19.6165 19.7331 19.0832 19.1997C18.5499 18.6663 17.7499 18.6664 17.2165 19.1997L12.5501 23.8667L10.5501 21.8667L13.3501 19.0667C13.8833 18.5334 13.8833 17.7334 13.3501 17.2C12.8168 16.6666 12.0168 16.6667 11.4833 17.2L8.68333 20L6.81661 18.1333L11.4833 13.4666C12.0166 12.9333 12.0166 12.1333 11.4833 11.5998C10.9501 11.0664 10.1501 11.0666 9.61661 11.5998L4.95005 16.2667L3.08333 14.4C2.55005 13.8667 2.55005 13.0667 3.08333 12.5333L12.5501 3.06672C12.8168 2.8 13.0833 2.66672 13.4833 2.66672C13.7501 2.66672 14.1501 2.8 14.4166 3.06672L38.1501 26.8L26.8168 38.1333L25.6833 37ZM50.4168 18.4L55.0821 23.0653L10.7515 67.2681L6.15005 62.6667L50.4168 18.4ZM5.08333 65.3333L9.45771 69.7077C9.52427 69.86 9.6213 70.0045 9.75005 70.1333L14.5697 74.9528L3.08349 76.9331L5.08333 65.3333ZM77.2168 66.5333L66.5501 77.2C66.4168 77.3333 66.0168 77.3333 65.8833 77.2L52.0833 63.4L56.8166 58.6667C57.3499 58.1334 57.3499 57.3334 56.8166 56.8C56.2833 56.2667 55.4833 56.2667 54.9499 56.8L50.2166 61.5333L48.2833 59.6L51.0833 56.8C51.6166 56.2667 51.6166 55.4667 51.0833 54.9333C50.5501 54.4 49.7501 54.4 49.2166 54.9333L46.4166 57.7333L44.5499 55.8666L49.2166 51.1998C49.7499 50.6666 49.7499 49.8666 49.2166 49.3331C48.6833 48.7998 47.8833 48.7998 47.3499 49.3331L42.6833 54L41.8833 53.2L53.2166 41.8667L77.2166 65.8667C77.3501 66 77.3501 66.4 77.2168 66.5333Z" fill="#F29C2B"/>
</g>
<defs>
<clipPath id="clip0">
<rect width="80" height="80" fill="white"/>
</clipPath>
</defs>
</svg>
