<svg width="80" height="80" viewBox="0 0 80 80" fill="none" xmlns="http://www.w3.org/2000/svg">
<path d="M73.7825 31.5175C75.2311 30.1055 75.7425 28.0331 75.1175 26.1092C74.4924 24.1853 72.8605 22.8096 70.8586 22.5188L53.3539 19.9752C53.0103 19.9253 52.7133 19.7096 52.5596 19.398L44.7313 3.53627C43.8361 1.72221 42.0233 0.595337 40.0003 0.595337C37.9774 0.595337 36.1645 1.72221 35.2694 3.53627L27.4411 19.3981C27.2872 19.7096 26.9903 19.9253 26.6466 19.9753L9.1422 22.5188C7.14033 22.8096 5.50861 24.1853 4.8833 26.1092C4.25799 28.0331 4.76955 30.1055 6.2183 31.5175L18.8847 43.8642C19.1333 44.1067 19.2469 44.456 19.1881 44.7983L16.198 62.2321C15.8561 64.226 16.6602 66.203 18.2967 67.3921C19.9333 68.5814 22.0627 68.735 23.853 67.7939L39.5094 59.5628C39.8169 59.4011 40.1839 59.4011 40.4916 59.5628L56.1481 67.7939C56.9269 68.2033 57.7696 68.4056 58.6081 68.4055C59.6972 68.4055 60.7794 68.0642 61.7039 67.3919C63.3405 66.2027 64.1447 64.2255 63.8027 62.2319L60.8125 44.7981C60.7539 44.4558 60.8674 44.1066 61.116 43.8641L73.7825 31.5175ZM56.653 45.5119L59.6431 62.946C59.7431 63.5294 59.383 63.8621 59.2235 63.9778C59.0638 64.0935 58.636 64.3336 58.1122 64.058L42.4556 55.8269C41.687 55.423 40.8439 55.2208 40.0006 55.2208C39.1574 55.2208 38.3141 55.423 37.5456 55.8267L21.8892 64.0577C21.3652 64.3331 20.9375 64.0933 20.778 63.9775C20.6185 63.8617 20.2581 63.5291 20.3583 62.9456L23.3485 45.5119C23.642 43.8002 23.075 42.0546 21.8311 40.8422L9.1647 28.4955C8.7408 28.0821 8.83674 27.6013 8.89783 27.4138C8.95861 27.2261 9.16377 26.7806 9.74955 26.6956L27.2538 24.1521C28.9724 23.9024 30.4575 22.8236 31.2263 21.266L39.0546 5.40409C39.3166 4.87331 39.8035 4.81596 40.0008 4.81596C40.1978 4.81596 40.6847 4.87315 40.9469 5.40409V5.40424L48.7752 21.2661C49.5438 22.8238 51.0288 23.9025 52.7474 24.1522L70.2519 26.6958C70.8377 26.7808 71.0427 27.2263 71.1036 27.4139C71.1646 27.6016 71.2606 28.0825 70.8366 28.4956L58.1702 40.8424C56.9264 42.0546 56.3594 43.8002 56.653 45.5119Z" fill="#F29C2B"/>
<path d="M64.6536 3.53521C63.7105 2.85021 62.3909 3.05927 61.7059 4.00208L59.4658 7.08521C58.7808 8.02802 58.9897 9.34787 59.9326 10.0329C60.3075 10.3049 60.7414 10.436 61.1714 10.436C61.8241 10.436 62.4675 10.1343 62.8803 9.56615L65.1205 6.48302C65.8055 5.54005 65.5966 4.22021 64.6536 3.53521Z" fill="#F29C2B"/>
<path d="M20.5249 7.07266L18.2848 3.98953C17.5999 3.04703 16.2802 2.83797 15.3371 3.52266C14.3943 4.20766 14.1852 5.5275 14.8702 6.47031L17.1104 9.55344C17.5234 10.122 18.1668 10.4236 18.8196 10.4236C19.2498 10.4236 19.6838 10.2925 20.0582 10.0203C21.001 9.33547 21.2101 8.01563 20.5249 7.07266Z" fill="#F29C2B"/>
<path d="M7.74247 47.942C7.38231 46.8337 6.19184 46.227 5.08325 46.5871L1.45872 47.7649C0.350125 48.1251 -0.256282 49.3159 0.103875 50.4242C0.393562 51.3162 1.22091 51.8831 2.11044 51.8831C2.32653 51.8831 2.54637 51.8495 2.76309 51.779L6.38762 50.6012C7.49606 50.241 8.10262 49.0506 7.74247 47.942Z" fill="#F29C2B"/>
<path d="M40.0008 71.3728C38.8353 71.3728 37.8904 72.3176 37.8904 73.4831V77.2944C37.8904 78.4598 38.8353 79.4047 40.0008 79.4047C41.1662 79.4047 42.1111 78.4598 42.1111 77.2944V73.4831C42.1111 72.3175 41.1664 71.3728 40.0008 71.3728Z" fill="#F29C2B"/>
<path d="M78.5413 47.768L74.9167 46.5902C73.8086 46.2303 72.6177 46.8366 72.2575 47.9452C71.8973 49.0538 72.5037 50.2443 73.6123 50.6044L77.2369 51.7822C77.4536 51.8525 77.6733 51.886 77.8894 51.886C78.7791 51.886 79.6064 51.3189 79.8961 50.4271C80.2563 49.3186 79.6497 48.1282 78.5413 47.768Z" fill="#F29C2B"/>
</svg>
