<svg width="20" height="20" viewBox="0 0 20 20" fill="none" xmlns="http://www.w3.org/2000/svg">
<g clip-path="url(#clip0)">
<path d="M16.0741 20C15.2419 20 14.2369 19.7914 13.1317 19.3744C10.7086 18.4608 8.07231 16.6553 5.70845 14.2915C3.34391 11.9269 1.53839 9.28994 0.624191 6.86688C-0.206592 4.66379 -0.20861 2.85558 0.619482 2.02816C0.73855 1.90909 0.859635 1.78128 0.984757 1.64943C1.7402 0.854973 2.59385 -0.0390437 3.72533 0.00131823C4.50499 0.0336078 5.26043 0.517951 6.03403 1.48058C8.31986 4.32341 7.28929 5.33649 6.09659 6.51102L5.88604 6.71956C5.69096 6.91464 5.32232 7.81807 8.75173 11.2475C9.8711 12.3669 10.8257 13.1862 11.5885 13.682C12.0688 13.9941 12.9278 14.4664 13.2803 14.1139L13.4922 13.8999C14.6654 12.7099 15.6785 11.6827 18.5193 13.9665C19.4819 14.7401 19.9656 15.4949 19.9979 16.2759C20.0443 17.4067 19.1436 18.2624 18.3484 19.0172C18.2173 19.1423 18.0895 19.2634 17.9704 19.3818C17.5594 19.7935 16.9021 20 16.0741 20ZM3.64461 0.672671C2.84073 0.672671 2.11489 1.43686 1.47246 2.11292C1.34331 2.2488 1.21818 2.38065 1.09508 2.50376C0.478215 3.11995 0.540776 4.73913 1.25384 6.63009C2.13507 8.9657 3.88611 11.5179 6.18472 13.8165C8.48265 16.1138 11.0335 17.8648 13.3698 18.7454C15.2608 19.4598 16.8799 19.5203 17.4955 18.9048C17.6186 18.7817 17.7504 18.6566 17.8863 18.5281C18.5772 17.8716 19.3609 17.1275 19.3266 16.3021C19.303 15.7351 18.89 15.1249 18.0989 14.4892C15.7317 12.5855 15.0697 13.2575 13.9719 14.3708L13.7566 14.5881C13.2319 15.1135 12.3796 14.9971 11.2226 14.245C10.42 13.723 9.42847 12.8741 8.27681 11.7217C5.43062 8.87623 4.52046 7.13461 5.41111 6.24194L5.6257 6.03004C6.74171 4.9322 7.41508 4.26959 5.51067 1.90102C4.87363 1.1106 4.26416 0.697561 3.69708 0.673344C3.67959 0.672671 3.6621 0.672671 3.64461 0.672671Z" fill="#F29C2B"/>
</g>
<defs>
<clipPath id="clip0">
<rect width="20" height="20" fill="white"/>
</clipPath>
</defs>
</svg>
