<svg width="30" height="30" viewBox="0 0 30 30" fill="none" xmlns="http://www.w3.org/2000/svg">
<path d="M29.3478 0H4.56522H0.652174C0.292174 0 0 0.292174 0 0.652174V4.56522V29.3478C0 29.7078 0.292174 30 0.652174 30H4.56522C4.92522 30 5.21739 29.7078 5.21739 29.3478V28.6957H24.1304C24.3033 28.6957 24.4696 28.6272 24.5915 28.5046L28.5046 24.5915C28.6272 24.4696 28.6957 24.3033 28.6957 24.1304V5.21739H29.3478C29.7078 5.21739 30 4.92522 30 4.56522V0.652174C30 0.292174 29.7078 0 29.3478 0ZM3.91304 28.6957H1.30435V5.21739H3.91304V28.6957ZM3.91304 3.91304H1.30435V1.30435H3.91304V3.91304ZM27.3913 23.8604L23.8604 27.3913H23.4783V23.4783H27.3913V23.8604ZM27.3913 22.1739H22.8261C22.4661 22.1739 22.1739 22.4661 22.1739 22.8261V27.3913H5.21739V15.6522H8.47826C8.83826 15.6522 9.13043 15.36 9.13043 15C9.13043 14.64 8.83826 14.3478 8.47826 14.3478H5.21739V5.21739H14.3478V8.47826C14.3478 8.83826 14.64 9.13043 15 9.13043C15.36 9.13043 15.6522 8.83826 15.6522 8.47826V5.21739H27.3913V22.1739ZM28.6957 3.91304H5.21739V1.30435H28.6957V3.91304Z" fill="white"/>
<path d="M15 11.7391C14.64 11.7391 14.3478 12.0313 14.3478 12.3913V14.3478H12.3913C12.0313 14.3478 11.7391 14.64 11.7391 15C11.7391 15.36 12.0313 15.6522 12.3913 15.6522H15C15.36 15.6522 15.6522 15.36 15.6522 15V12.3913C15.6522 12.0313 15.36 11.7391 15 11.7391Z" fill="white"/>
</svg>
