<svg width="27" height="16" viewBox="0 0 27 16" fill="none" xmlns="http://www.w3.org/2000/svg">
<path d="M13.2436 16C10.8171 16 8.45377 15.3468 6.21901 14.0583C3.92505 12.7358 1.86899 10.7983 0.107486 8.29955C-0.0248445 8.1366 -0.0391003 7.89955 0.0876967 7.71934C1.85203 5.21149 3.91308 3.26761 6.21347 1.94165C8.44866 0.653353 10.813 0 13.2402 0C13.2422 0 13.2437 0 13.2456 0C15.6731 0.000962406 18.0364 0.655218 20.2701 1.9446C22.5671 3.27056 24.6243 5.21359 26.3844 7.71964C26.4413 7.80066 26.4718 7.89726 26.4718 7.99621V8.00379C26.4718 8.1028 26.4413 8.19934 26.3844 8.28036C24.6242 10.7865 22.5674 12.7295 20.2712 14.0554C18.0382 15.3447 15.6755 15.999 13.2489 16C13.2472 16 13.2453 16 13.2436 16ZM1.0732 7.99549C4.36649 12.5398 8.67765 15.0376 13.2436 15.0376C13.2453 15.0376 13.2469 15.0376 13.2486 15.0376C17.8112 15.0358 22.1163 12.5396 25.4024 8C22.1163 3.46039 17.81 0.964211 13.2453 0.962406C13.2439 0.962406 13.2417 0.962406 13.2404 0.962406C8.67488 0.962406 4.36589 3.4563 1.0732 7.99549Z" fill="black" fill-opacity="0.6"/>
<path d="M13.2274 13.624C10.1262 13.624 7.6033 11.101 7.6033 7.99991C7.6033 4.8988 10.1262 2.37585 13.2274 2.37585C16.3285 2.37585 18.8514 4.8988 18.8514 7.99991C18.8514 11.101 16.3284 13.624 13.2274 13.624ZM13.2274 3.33826C10.6569 3.33826 8.56571 5.42951 8.56571 7.99991C8.56571 10.5703 10.6569 12.6616 13.2274 12.6616C15.7978 12.6616 17.889 10.5703 17.889 7.99991C17.889 5.42951 15.7978 3.33826 13.2274 3.33826Z" fill="black" fill-opacity="0.6"/>
<path d="M15.8442 8.39104C15.5784 8.39104 15.363 8.17558 15.363 7.90983C15.363 6.74899 14.4186 5.80457 13.2577 5.80457C12.992 5.80457 12.7765 5.58911 12.7765 5.32337C12.7765 5.05762 12.992 4.84216 13.2577 4.84216C14.9492 4.84216 16.3254 6.21828 16.3254 7.90983C16.3254 8.17558 16.1099 8.39104 15.8442 8.39104Z" fill="black" fill-opacity="0.6"/>
</svg>
