<svg width="20" height="20" fill="none" xmlns="http://www.w3.org/2000/svg"><path d="M19 1.333h-2.333v-1A.333.333 0 0 0 16.333 0H14a.333.333 0 0 0-.333.333v1H6.333v-1A.333.333 0 0 0 6 0H3.667a.333.333 0 0 0-.334.333v1H1a.333.333 0 0 0-.333.334v18c0 .184.149.333.333.333h18a.333.333 0 0 0 .333-.333v-18A.333.333 0 0 0 19 1.333zM14.333.667H16v2h-1.667v-2zM4 .667h1.667v2H4v-2zM1.333 2h2v1c0 .184.15.333.334.333H6A.333.333 0 0 0 6.333 3V2h7.334v1c0 .184.149.333.333.333h2.333A.333.333 0 0 0 16.667 3V2h2v3H1.333V2zm0 17.333V5.667h17.334v13.666H1.333z" fill="#000" fill-opacity=".6"/><path d="M12.667 7.667h-9v9.666h12.666V7.667h-3.666zm-2.334.666h2.334v2.334h-2.334V8.333zm2.334 5.334h-2.334v-2.334h2.334v2.334zm-5.334-2.334h2.334v2.334H7.333v-2.334zm0-3h2.334v2.334H7.333V8.333zm-3 0h2.334v2.334H4.333V8.333zm0 3h2.334v2.334H4.333v-2.334zm2.334 5.334H4.333v-2.334h2.334v2.334zm3 0H7.333v-2.334h2.334v2.334zm3 0h-2.334v-2.334h2.334v2.334zm3 0h-2.334v-2.334h2.334v2.334zm0-3h-2.334v-2.334h2.334v2.334zm0-5.334v2.334h-2.334V8.333h2.334z" fill="#000" fill-opacity=".6"/></svg>