<svg width="30" height="30" fill="none" xmlns="http://www.w3.org/2000/svg"><path d="M29.348 0H.652A.652.652 0 0 0 0 .652v28.696c0 .36.292.652.652.652h3.913c.36 0 .652-.292.652-.652v-.652H24.13a.65.65 0 0 0 .462-.191l3.913-3.913a.65.65 0 0 0 .19-.462V5.217h.653c.36 0 .652-.292.652-.652V.652A.652.652 0 0 0 29.348 0zM3.913 28.696H1.304V5.217h2.609v23.479zm0-24.783H1.304V1.304h2.609v2.609zM27.391 23.86l-3.53 3.531h-.383v-3.913h3.913v.382zm0-1.686h-4.565a.652.652 0 0 0-.652.652v4.565H5.217V15.652h3.261a.652.652 0 0 0 0-1.304h-3.26v-9.13h9.13v3.26a.652.652 0 0 0 1.304 0v-3.26h11.74v16.956zm1.305-18.261H5.217V1.304h23.479v2.609z" fill="#fff"/><path d="M15 11.74a.652.652 0 0 0-.652.651v1.957H12.39a.652.652 0 0 0 0 1.304H15c.36 0 .652-.292.652-.652v-2.609A.652.652 0 0 0 15 11.74z" fill="#fff"/></svg>