<svg width="80" height="80" fill="none" xmlns="http://www.w3.org/2000/svg"><g clip-path="url(#clip0)" fill="#F29C2B"><path d="M62.55 62.4c-2.133 2-2.133 5.333 0 7.467 1.067 1.066 2.4 1.6 3.733 1.6 1.334 0 2.667-.534 3.734-1.6 2.133-2 2.133-5.334 0-7.467-2-2.133-5.334-2.133-7.467 0zm5.6 5.733c-1.067 1.067-2.667 1.067-3.733 0-1.067-1.066-1.067-2.666 0-3.733.533-.533 1.2-.8 1.867-.8.666 0 1.333.267 1.866.8 1.067 1.067 1.067 2.667 0 3.733z"/><path d="M79.083 64l-24-24 9.467-9.467 5.6-5.6 8.133-8.133c2.267-2.267 2.267-6 0-8.267l-6.8-6.8A5.85 5.85 0 0 0 67.35 0a5.85 5.85 0 0 0-4.133 1.733l-8.133 8.134-5.6 5.6-9.467 9.466L16.283 1.2c-1.466-1.467-4.133-1.467-5.6 0l-9.466 9.467c-1.6 1.466-1.6 4 0 5.6l2.8 2.8 7.6 7.6 7.466 7.466L24.95 40 3.546 61.404c-.4.176-.614.536-.73.996l-2.8 16c0 .533.134.933.4 1.2.267.267.534.4.934.4h.267l15.382-2.844c.106.028.221.044.351.044.4 0 .8-.133.933-.4l21.734-21.733L41.75 56.8l3.733 3.733 18.534 18.534a3.123 3.123 0 0 0 2.267.933c.8 0 1.6-.267 2.133-.933L79.083 68.4c1.2-1.2 1.2-3.2 0-4.4zM17.35 73.867L12.685 69.2 57.015 25l4.602 4.601L17.35 73.867zM65.083 3.6c1.2-1.2 3.334-1.2 4.534 0l6.8 6.8c1.2 1.2 1.2 3.333 0 4.533l-7.2 7.2L57.883 10.8l7.2-7.2zm-9.066 9.067l5.666 5.666L67.35 24l-3.733 3.733L52.283 16.4l3.734-3.733zM25.683 37l2.867-2.867a1.29 1.29 0 0 0 0-1.866 1.289 1.289 0 0 0-1.867 0l-2.866 2.866-1.934-1.933 4.667-4.667a1.29 1.29 0 0 0 0-1.866 1.289 1.289 0 0 0-1.867 0l-4.666 4.666-1.867-1.866 2.8-2.8a1.29 1.29 0 0 0 0-1.867 1.289 1.289 0 0 0-1.867 0l-2.8 2.8-1.867-1.867 4.667-4.667a1.289 1.289 0 0 0 0-1.866 1.289 1.289 0 0 0-1.866 0l-4.667 4.667-2-2 2.8-2.8a1.29 1.29 0 0 0 0-1.867 1.289 1.289 0 0 0-1.867 0l-2.8 2.8-1.866-1.867 4.666-4.666a1.29 1.29 0 0 0 0-1.867 1.289 1.289 0 0 0-1.866 0L4.95 16.267 3.083 14.4a1.289 1.289 0 0 1 0-1.867l9.467-9.466c.267-.267.533-.4.933-.4.267 0 .667.133.934.4L38.15 26.8 26.817 38.133 25.683 37zm24.734-18.6l4.665 4.665-44.33 44.203-4.602-4.601L50.417 18.4zM5.083 65.333l4.375 4.375c.066.152.163.296.292.425l4.82 4.82-11.487 1.98 2-11.6zm72.134 1.2L66.55 77.2c-.133.133-.533.133-.667 0l-13.8-13.8 4.734-4.733a1.289 1.289 0 0 0 0-1.867 1.289 1.289 0 0 0-1.867 0l-4.733 4.733-1.934-1.933 2.8-2.8a1.289 1.289 0 0 0 0-1.867 1.289 1.289 0 0 0-1.866 0l-2.8 2.8-1.867-1.866 4.667-4.667a1.289 1.289 0 0 0 0-1.867 1.289 1.289 0 0 0-1.867 0L42.683 54l-.8-.8 11.334-11.333 24 24c.133.133.133.533 0 .666z"/></g><defs><clipPath id="clip0"><path fill="#fff" d="M0 0h80v80H0z"/></clipPath></defs></svg>