<svg width="27" height="16" fill="none" xmlns="http://www.w3.org/2000/svg"><path d="M13.244 16c-2.427 0-4.79-.653-7.025-1.942-2.294-1.322-4.35-3.26-6.112-5.758a.481.481 0 0 1-.02-.58c1.766-2.51 3.827-4.453 6.127-5.779C8.45.653 10.813 0 13.24 0h.006c2.427.001 4.79.655 7.024 1.945 2.297 1.326 4.354 3.269 6.114 5.775a.481.481 0 0 1 .088.276v.008c0 .099-.03.195-.088.276-1.76 2.507-3.817 4.45-6.113 5.775C18.038 15.345 15.675 16 13.25 16h-.005zM1.074 7.995c3.292 4.545 7.604 7.043 12.17 7.043h.005C17.81 15.036 22.116 12.54 25.402 8 22.116 3.46 17.81.964 13.245.962h-.005c-4.565 0-8.874 2.494-12.167 7.033z" fill="#000" fill-opacity=".6"/><path d="M13.227 13.624A5.63 5.63 0 0 1 7.603 8a5.63 5.63 0 0 1 5.624-5.624A5.63 5.63 0 0 1 18.851 8a5.63 5.63 0 0 1-5.624 5.624zm0-10.286A4.667 4.667 0 0 0 8.566 8a4.667 4.667 0 0 0 4.661 4.662A4.667 4.667 0 0 0 17.89 8a4.667 4.667 0 0 0-4.662-4.662z" fill="#000" fill-opacity=".6"/><path d="M15.844 8.391a.481.481 0 0 1-.481-.481 2.107 2.107 0 0 0-2.105-2.105.481.481 0 0 1 0-.963 3.071 3.071 0 0 1 3.067 3.068.481.481 0 0 1-.48.481z" fill="#000" fill-opacity=".6"/></svg>